<svg width="109" height="109" viewBox="0 0 109 109" fill="none" xmlns="http://www.w3.org/2000/svg">
<path fill-rule="evenodd" clip-rule="evenodd" d="M3.20534 15.3535C2.78951 15.4594 2.54317 15.6603 2.3546 16.0474L2.20609 16.3519V42.8921V69.4322L2.30391 69.642C2.67124 70.4311 3.33205 70.5884 4.61335 70.1914C5.22784 70.001 5.37635 69.957 5.6919 69.8708C5.77311 69.8486 6.01318 69.7777 6.22546 69.7137C6.83314 69.5301 9.09488 68.859 9.24585 68.8176C9.32079 68.7971 9.55568 68.7279 9.76796 68.6641C9.98024 68.6001 10.9512 68.3123 11.9253 68.0247C12.8995 67.7369 14.2588 67.3339 14.9455 67.1289C15.6324 66.924 16.2355 66.7461 16.2853 66.7333C17.5497 66.4123 18.4953 65.6265 19.049 64.4366C19.436 63.6051 19.4003 65.9119 19.3861 42.6868L19.3736 22.0066L19.2474 21.643C18.8785 20.5806 18.1016 19.6634 17.1988 19.2237C16.9214 19.0886 16.6393 18.9975 15.4223 18.6489C15.3226 18.6202 15.1795 18.5788 15.1046 18.557C15.0297 18.5348 14.7127 18.4448 14.4005 18.3567C14.0884 18.2683 13.659 18.1449 13.4467 18.082C13.2344 18.0193 12.9892 17.9482 12.9017 17.9241C12.8142 17.9 12.6099 17.8409 12.4477 17.7925C12.2853 17.7443 12.0401 17.6732 11.9027 17.6343C11.7651 17.5958 11.4689 17.5115 11.2441 17.4475C11.0193 17.3834 10.7637 17.3109 10.6765 17.2863C10.589 17.262 10.3743 17.1993 10.1996 17.1473C9.80856 17.031 9.47829 16.935 9.26847 16.8767C9.18099 16.8526 8.85399 16.7599 8.54171 16.6712C8.2297 16.5823 7.89234 16.4871 7.79233 16.4597C7.6926 16.4321 7.55962 16.3935 7.49722 16.3736C7.37159 16.3339 6.97184 16.216 6.72522 16.1462C5.87775 15.9068 5.36981 15.7612 5.04472 15.6652C4.83244 15.6025 4.57683 15.5289 4.4771 15.5021C4.37709 15.4753 4.24765 15.4345 4.18934 15.4115C4.06508 15.3628 3.33751 15.3199 3.20534 15.3535ZM84.8823 20.5447C84.8711 20.5557 84.6275 20.5877 84.3411 20.6153C83.6214 20.6851 83.1805 20.7319 82.2303 20.8391C81.7807 20.89 81.2085 20.9535 80.9586 20.9806C80.709 21.0074 80.3411 21.0487 80.1411 21.0722C79.9413 21.0958 79.4713 21.1469 79.0966 21.1861C78.7219 21.2255 78.2622 21.2761 78.0747 21.2988C77.8875 21.3215 77.5194 21.3631 77.2572 21.3913C76.9948 21.4195 76.6168 21.4608 76.4171 21.4829C76.2171 21.5054 75.747 21.556 75.3723 21.5951C74.9976 21.6345 74.5663 21.6868 74.4134 21.7111C74.2608 21.7358 74.0477 21.7557 73.9403 21.7557C73.8327 21.7557 73.6204 21.7749 73.4686 21.7981C73.3166 21.8214 72.8858 21.8734 72.5111 21.9139C72.1364 21.9544 71.693 22.0072 71.526 22.0312C71.3587 22.0553 71.1238 22.0756 71.0036 22.0767C69.7804 22.0857 68.4963 23.1591 68.1966 24.4234C68.0966 24.8448 68.096 60.7355 68.1958 61.1681C68.4304 62.1832 69.1849 63.0174 70.1907 63.3736C70.3703 63.4374 70.8657 63.5121 71.7846 63.6141C72.0342 63.642 72.6168 63.7074 73.079 63.7597C73.951 63.8585 74.3314 63.8998 75.0998 63.9791C75.5903 64.03 76.9504 64.1805 77.5752 64.2533C77.7875 64.2779 78.1758 64.3203 78.438 64.3474C78.7004 64.3745 79.1601 64.4257 79.4598 64.4612C79.7596 64.4965 80.2196 64.5482 80.4817 64.5756C81.5049 64.6831 81.7962 64.7146 82.344 64.7778C82.6562 64.8139 83.126 64.8662 83.3885 64.8944C83.6506 64.9225 84.0288 64.9669 84.2286 64.9929C85.8955 65.209 86.8544 64.6807 87.0969 63.4128C87.1874 62.9394 87.1847 22.6025 87.0942 22.1787C86.9568 21.536 86.6007 21.0567 86.0611 20.7885C85.6687 20.5932 84.9763 20.4501 84.8823 20.5447Z" fill="#4285F4"/>
<path fill-rule="evenodd" clip-rule="evenodd" d="M23.7791 20.5546C22.9507 20.7338 22.398 21.2553 22.1909 22.0537C22.067 22.5314 22.0871 63.2234 22.2117 63.6278C22.57 64.7931 23.3804 65.1909 25.0236 65.0087C25.3634 64.971 26.2951 64.8689 27.0946 64.7819C27.8938 64.6946 28.7419 64.6019 28.9792 64.5753C29.2165 64.5488 29.4959 64.5181 29.6 64.5072C29.8836 64.4771 31.3995 64.3097 31.8404 64.2596C32.0527 64.2355 32.4206 64.1936 32.6579 64.1668C32.8953 64.1397 33.5597 64.0672 34.1341 64.0054C34.7085 63.9436 35.3625 63.8716 35.5873 63.8453C35.8121 63.8193 36.5582 63.7364 37.2452 63.6615C38.647 63.5083 38.7213 63.4976 39.0391 63.4084C40.0075 63.1367 40.9215 62.1347 41.1283 61.1183C41.2251 60.6444 41.2292 24.9504 41.1327 24.5145C40.8594 23.2789 39.7683 22.2244 38.6303 22.0961C38.5303 22.0849 38.2646 22.0553 38.0398 22.0302C37.815 22.0053 37.3757 21.9555 37.0635 21.9193C36.7512 21.8832 36.271 21.8301 35.9961 21.8014C35.7214 21.7727 35.2412 21.7199 34.929 21.6843C34.2687 21.6091 33.6997 21.5467 33.0781 21.481C32.8345 21.455 32.4615 21.4143 32.2492 21.3896C31.6118 21.3166 30.6657 21.2123 30.1828 21.162C29.9329 21.136 29.5754 21.0952 29.3879 21.0712C29.2007 21.0473 28.7408 20.9965 28.3661 20.9584C27.9914 20.9201 27.6039 20.8777 27.505 20.8643C27.4061 20.8506 27.13 20.8194 26.8918 20.7948C26.6537 20.7702 26.285 20.7311 26.0727 20.7075C25.8604 20.684 25.4005 20.6334 25.0508 20.5948C24.4413 20.5275 23.9728 20.5127 23.7791 20.5546Z" fill="#EA4335"/>
<path fill-rule="evenodd" clip-rule="evenodd" d="M45.9197 22.5393C45.381 22.6904 45.26 22.738 45.0237 22.8918C44.6687 23.123 44.273 23.5643 44.1062 23.9151C43.8067 24.5449 43.8288 22.9634 43.8416 42.946L43.8533 61.0871L43.9626 61.39C44.1923 62.0253 44.6937 62.5898 45.2722 62.865C45.8336 63.1318 45.3216 63.1189 54.786 63.1058L63.4733 63.0935L63.7911 62.9613C64.6598 62.6002 65.165 62.0133 65.3846 61.1098C65.4748 60.7385 65.4754 24.8667 65.3852 24.4918C65.1489 23.5107 64.3829 22.7528 63.4246 22.5514C63.0422 22.4712 46.2042 22.4595 45.9197 22.5393Z" fill="#FBBC05"/>
<path fill-rule="evenodd" clip-rule="evenodd" d="M105.302 15.2345C105.102 15.2802 104.847 15.3473 104.734 15.3836C104.622 15.4198 104.438 15.4753 104.325 15.507C104.213 15.5385 104.067 15.5845 104 15.6088C103.934 15.6332 103.811 15.6698 103.728 15.6904C103.644 15.7109 103.259 15.8239 102.872 15.9413C102.485 16.0586 102.097 16.1714 102.009 16.1916C101.922 16.2116 101.726 16.271 101.574 16.3229C101.422 16.3749 101.187 16.4474 101.052 16.4841C100.812 16.5489 100.249 16.7142 99.466 16.949C99.2537 17.0127 98.9471 17.1046 98.7847 17.1533C98.6223 17.2021 98.4078 17.2644 98.3078 17.2918C98.2078 17.3194 98.0443 17.3679 97.9446 17.3996C97.8446 17.4313 97.6811 17.4803 97.5811 17.5085C97.4813 17.5367 97.2565 17.6023 97.0816 17.6543C96.7529 17.752 96.4426 17.8426 96.1278 17.9326C96.0278 17.9613 95.803 18.03 95.6283 18.0855C95.4534 18.1411 95.2286 18.2089 95.1286 18.2366C95.0288 18.2639 94.7732 18.3386 94.561 18.4026C94.3487 18.4667 94.0931 18.5419 93.9933 18.5701C93.7127 18.6494 93.5105 18.7091 93.3121 18.7712C93.2121 18.8024 93.0382 18.8533 92.926 18.8842C91.4283 19.2976 90.2988 20.4709 89.9497 21.9752C89.8274 22.503 89.8516 63.2511 89.9745 63.7362C90.3258 65.1206 91.482 66.3051 92.8352 66.6663C93.0224 66.7161 94.2795 67.0739 95.6283 67.4611C96.9772 67.8483 98.1217 68.176 98.1716 68.1897C98.2215 68.2031 99.5194 68.578 101.055 69.0223C102.592 69.4667 103.92 69.8494 104.008 69.8732C104.274 69.9452 104.419 69.986 104.935 70.1337C106.01 70.4415 106.704 70.2103 106.982 69.4519C107.073 69.2054 107.073 69.0913 107.073 42.6869V16.1694L106.947 15.9188C106.61 15.2498 106.121 15.0468 105.302 15.2345Z" fill="#34A853"/>
<path fill-rule="evenodd" clip-rule="evenodd" d="M105.279 15.0394C105.217 15.0509 105.146 15.0788 105.123 15.1018C105.099 15.1248 105.033 15.1434 104.977 15.1434C104.921 15.1434 104.828 15.1623 104.77 15.185C104.713 15.2077 104.543 15.2611 104.394 15.3035C103.904 15.4422 103.804 15.4734 103.724 15.5139C103.681 15.536 103.611 15.5538 103.569 15.5538C103.49 15.5538 103.255 15.6217 103.054 15.7024C102.938 15.7492 102.745 15.8045 102.463 15.8715C102.376 15.8923 102.131 15.9648 101.918 16.0324C101.706 16.0999 101.466 16.1738 101.385 16.1965C101.304 16.2192 101.171 16.2567 101.09 16.2797C101.008 16.3027 100.789 16.3648 100.601 16.4176C100.414 16.4704 100.22 16.5323 100.17 16.5547C100.12 16.5774 100.028 16.6056 99.9655 16.6173C99.7911 16.6499 99.1804 16.834 99.0918 16.8806C99.0485 16.9033 98.9727 16.9219 98.9237 16.9219C98.8746 16.9219 98.7874 16.9402 98.7302 16.9624C98.6727 16.9845 98.4419 17.0584 98.2171 17.1265C97.9923 17.1944 97.7612 17.2685 97.704 17.2912C97.6465 17.314 97.5506 17.3323 97.4909 17.3323C97.4312 17.3323 97.3696 17.3528 97.3541 17.378C97.3386 17.4032 97.2813 17.4237 97.2266 17.4239C97.1718 17.4239 97.0685 17.4549 96.9968 17.4923C96.9254 17.5298 96.8192 17.5605 96.7611 17.5605C96.7031 17.5605 96.6429 17.581 96.6273 17.6059C96.6121 17.6311 96.539 17.6516 96.4652 17.6516C96.3913 17.6516 96.2954 17.6702 96.2521 17.6926C96.2088 17.7153 96.0507 17.769 95.9008 17.8122C95.751 17.8557 95.5927 17.9088 95.5493 17.9309C95.506 17.9528 95.4204 17.9709 95.3591 17.9709C95.2978 17.9709 95.2349 17.9914 95.2196 18.0163C95.2041 18.0415 95.1466 18.0626 95.0918 18.0631C95.0373 18.0634 94.8493 18.1148 94.6746 18.1766C94.4996 18.2388 94.3119 18.2896 94.2571 18.2899C94.2024 18.2899 94.1449 18.3104 94.1296 18.3356C94.1141 18.3608 94.0427 18.3813 93.9705 18.3813C93.8985 18.3813 93.8271 18.4018 93.8116 18.4267C93.7961 18.4519 93.7418 18.4724 93.6909 18.4724C93.6399 18.4724 93.5339 18.5014 93.4552 18.5367C93.3764 18.572 93.2609 18.6117 93.1985 18.6248C93.1361 18.6377 93.0134 18.6691 92.926 18.6946C92.8385 18.72 92.6949 18.7594 92.6066 18.7819C92.3799 18.8401 91.6163 19.2229 91.4286 19.3726C91.1746 19.5751 90.6552 20.0799 90.6552 20.1239C90.6552 20.1464 90.5939 20.2301 90.519 20.3103C90.4443 20.3904 90.383 20.47 90.3827 20.487C90.3827 20.504 90.3571 20.545 90.3255 20.5781C90.2781 20.6285 90.1601 20.8561 89.8756 21.4474C89.8549 21.4909 89.8377 21.5741 89.8377 21.6321C89.8377 21.6901 89.82 21.7571 89.7988 21.7809C89.6603 21.9344 89.656 22.5768 89.656 42.7949C89.656 62.8234 89.662 63.7285 89.7958 63.8664C89.8186 63.8902 89.8377 63.9537 89.8377 64.0071C89.8377 64.0607 89.8511 64.1181 89.8677 64.1346C89.8843 64.1512 89.9353 64.2714 89.9808 64.4016C90.0266 64.5316 90.0794 64.6498 90.0982 64.664C90.1173 64.6779 90.1909 64.8008 90.262 64.9365C90.3329 65.0722 90.4146 65.2079 90.4435 65.238C90.4726 65.2681 90.5574 65.3724 90.6321 65.47C90.907 65.829 91.6564 66.4909 91.788 66.4909C91.8153 66.4909 91.9188 66.5423 92.0177 66.605C92.1166 66.6676 92.2251 66.7188 92.2589 66.7188C92.2927 66.7188 92.3346 66.7333 92.3521 66.7508C92.3695 66.7683 92.521 66.8211 92.6889 66.8682C92.8567 66.9155 93.0963 66.9858 93.2211 67.0244C93.3462 67.0633 93.5148 67.1049 93.5963 67.1172C93.6778 67.1295 93.7555 67.1577 93.7693 67.1798C93.783 67.2023 93.8383 67.2206 93.8922 67.2206C93.9462 67.2206 94.0726 67.2491 94.1735 67.2841C94.274 67.3191 94.4484 67.3725 94.561 67.4026C94.6732 67.4326 94.8008 67.4759 94.8441 67.4986C94.8877 67.5213 94.9833 67.5396 95.0572 67.5396C95.131 67.5396 95.2041 67.5601 95.2196 67.5853C95.2349 67.6105 95.2951 67.631 95.3531 67.631C95.4114 67.631 95.5174 67.6617 95.5891 67.6991C95.6605 67.7366 95.7752 67.7673 95.8439 67.7675C95.9126 67.7675 95.969 67.7883 95.969 67.8132C95.969 67.8384 96.0306 67.8589 96.1058 67.8589C96.181 67.8589 96.278 67.8775 96.3216 67.9002C96.3649 67.923 96.5333 67.9766 96.6955 68.0193C96.8579 68.0619 97.0317 68.1137 97.0816 68.1342C97.1699 68.1703 97.3023 68.2023 97.5811 68.2551C97.656 68.2693 97.7378 68.297 97.7628 68.3167C97.7879 68.3364 97.8852 68.3668 97.9792 68.3845C98.0729 68.402 98.161 68.4346 98.1749 68.457C98.1885 68.4792 98.2689 68.4973 98.3533 68.4973C98.4378 68.4973 98.5196 68.5178 98.5348 68.543C98.5504 68.5681 98.613 68.5886 98.6744 68.5886C98.7357 68.5886 98.8215 68.6073 98.8648 68.63C98.9082 68.6527 99.0766 68.7058 99.239 68.7482C99.4011 68.7906 99.5695 68.8437 99.6128 68.8664C99.6564 68.8891 99.742 68.9077 99.8033 68.9077C99.8646 68.9077 99.9273 68.9282 99.9428 68.9534C99.9584 68.9785 100.026 68.9996 100.093 69.0007C100.16 69.0015 100.267 69.0316 100.329 69.0675C100.391 69.1033 100.508 69.1334 100.587 69.1342C100.667 69.135 100.745 69.1564 100.76 69.1813C100.776 69.2065 100.839 69.227 100.9 69.227C100.961 69.227 101.047 69.2456 101.09 69.268C101.134 69.2907 101.261 69.334 101.373 69.3641C101.486 69.3942 101.66 69.4475 101.761 69.4825C101.862 69.5176 101.988 69.5463 102.042 69.5463C102.096 69.5463 102.153 69.5668 102.168 69.5917C102.184 69.6169 102.245 69.6374 102.305 69.6374C102.365 69.6374 102.461 69.6552 102.518 69.6771C102.575 69.699 102.745 69.7526 102.895 69.7964C103.045 69.8401 103.208 69.8927 103.258 69.9129C103.308 69.9332 103.405 69.9616 103.474 69.9758C103.543 69.9903 103.655 70.0139 103.724 70.0284C103.792 70.0429 103.889 70.0719 103.94 70.0927C104.119 70.1682 104.503 70.2757 104.593 70.2757C104.643 70.2757 104.696 70.2962 104.712 70.3214C104.727 70.3466 104.784 70.3674 104.839 70.3677C104.894 70.3679 105.021 70.3969 105.121 70.4322C105.85 70.6872 106.933 70.3045 107.079 69.74C107.094 69.6836 107.124 69.6374 107.146 69.6374C107.168 69.6374 107.187 69.5799 107.187 69.5096C107.187 69.4396 107.212 69.3564 107.244 69.3249C107.289 69.2795 107.3 63.9001 107.3 42.7325C107.3 21.5648 107.289 16.1853 107.244 16.1399C107.212 16.1084 107.187 16.0255 107.187 15.9552C107.187 15.8849 107.166 15.8274 107.141 15.8274C107.116 15.8274 107.096 15.8009 107.096 15.7683C107.096 15.7355 106.995 15.5951 106.871 15.4561C106.533 15.075 105.942 14.9201 105.279 15.0394ZM2.97834 15.2296C2.73745 15.3073 2.23033 15.7705 2.22733 15.9153C2.22652 15.9549 2.196 16.0269 2.15921 16.0756C2.12269 16.1243 2.09272 16.2206 2.09272 16.2896C2.09272 16.3585 2.07228 16.4277 2.04721 16.4431C1.98426 16.4822 1.98426 69.3638 2.04721 69.3638C2.07228 69.3638 2.09245 69.3996 2.09245 69.4437C2.09217 69.5482 2.24178 69.975 2.28565 69.9947C2.30445 70.0029 2.31971 70.0306 2.31971 70.056C2.31971 70.123 2.73146 70.5039 2.80394 70.5039C2.83719 70.5039 2.86471 70.5244 2.86471 70.5493C2.86471 70.5745 2.92194 70.595 2.99197 70.595C3.06173 70.595 3.14184 70.618 3.16991 70.6459C3.24076 70.7173 4.00104 70.6517 4.24983 70.5526C4.29997 70.5329 4.46347 70.4809 4.61334 70.4372C4.76322 70.3937 4.92127 70.3395 4.9646 70.3168C5.00792 70.2943 5.10384 70.2757 5.17769 70.2757C5.25154 70.2757 5.32348 70.2571 5.33738 70.2341C5.35155 70.2112 5.44474 70.1786 5.5442 70.1619C5.64394 70.1449 5.73713 70.1124 5.75103 70.0894C5.7652 70.0664 5.83551 70.0478 5.90772 70.0478C5.97966 70.0478 6.05105 70.0273 6.06659 70.0021C6.08212 69.9772 6.15079 69.9567 6.21919 69.9567C6.28758 69.9567 6.36307 69.9378 6.38677 69.9148C6.41048 69.8919 6.49114 69.8634 6.56608 69.8514C6.64102 69.8396 6.75356 69.8098 6.81596 69.7851C7.03778 69.6976 7.25523 69.6374 7.35006 69.6374C7.4032 69.6374 7.45906 69.6169 7.47459 69.5917C7.48985 69.5668 7.55852 69.5463 7.62719 69.5463C7.69559 69.5463 7.77434 69.5233 7.80241 69.4951C7.83048 69.4669 7.93158 69.4273 8.02722 69.407C8.12287 69.3865 8.27792 69.3479 8.37139 69.3211C8.46513 69.2946 8.61855 69.2508 8.71202 69.224C8.80576 69.1972 8.96081 69.1586 9.05646 69.1383C9.1521 69.1178 9.2532 69.0781 9.28127 69.05C9.30906 69.022 9.38809 68.9991 9.45649 68.9991C9.52488 68.9991 9.59355 68.9785 9.60909 68.9534C9.62462 68.9282 9.69601 68.9077 9.76795 68.9077C9.84017 68.9077 9.91156 68.8872 9.92709 68.8623C9.94235 68.8371 9.99713 68.8166 10.0484 68.8166C10.1443 68.8166 10.5462 68.6978 10.6871 68.6278C10.7304 68.6062 10.8163 68.5886 10.8776 68.5886C10.9389 68.5886 11.0016 68.5681 11.0171 68.543C11.0324 68.5178 11.104 68.4973 11.176 68.4973C11.2479 68.4973 11.3185 68.4787 11.3324 68.4557C11.3465 68.4327 11.4397 68.4001 11.5392 68.3834C11.6389 68.3665 11.7321 68.3339 11.746 68.3109C11.7602 68.2879 11.8379 68.2693 11.9191 68.2693C12 68.2693 12.0856 68.2502 12.1093 68.2267C12.133 68.2031 12.2036 68.1755 12.266 68.1651C12.3284 68.155 12.4101 68.1361 12.4477 68.1232C12.4851 68.1104 12.6385 68.0641 12.7883 68.0204C12.9382 67.9769 13.0963 67.9227 13.1396 67.9C13.1829 67.8775 13.2799 67.8589 13.3554 67.8589C13.4306 67.8589 13.4922 67.8431 13.4922 67.8236C13.4922 67.7878 13.8059 67.6915 14.0718 67.6461C14.153 67.6321 14.231 67.6026 14.2446 67.5804C14.2585 67.558 14.3198 67.5396 14.3811 67.5396C14.4424 67.5396 14.528 67.5213 14.5716 67.4986C14.6149 67.4759 14.7422 67.4324 14.8547 67.402C14.9673 67.3714 15.1362 67.318 15.2302 67.2835C15.3245 67.2488 15.4422 67.2206 15.4921 67.2206C15.542 67.2206 15.618 67.202 15.6616 67.1793C15.7049 67.1568 15.8322 67.1133 15.9447 67.0827C16.2992 66.9867 16.6003 66.8917 16.6821 66.8501C16.7254 66.8282 16.7941 66.8102 16.8344 66.8102C16.875 66.8102 17.0028 66.7618 17.1189 66.7027C17.8451 66.3333 18.3304 65.9322 18.7547 65.3508C18.8556 65.2129 18.9542 65.0796 18.9741 65.0544C19.0141 65.0038 19.3439 64.3318 19.3992 64.1879C19.4897 63.9529 19.548 63.7589 19.5919 63.5496C19.657 63.2388 19.688 22.3497 19.6235 22.2846C19.5984 22.2597 19.578 22.1752 19.578 22.0966C19.578 21.9456 19.4564 21.5344 19.3905 21.4616C19.3687 21.4378 19.351 21.382 19.351 21.3377C19.351 21.2175 19.094 20.7653 18.785 20.3414C18.4087 19.8254 17.5715 19.1222 17.2317 19.0366C17.1734 19.0218 17.1255 18.9915 17.1255 18.969C17.1255 18.9469 17.0928 18.9285 17.053 18.9285C17.0129 18.9285 16.9159 18.8995 16.8371 18.8642C16.6925 18.7991 16.5434 18.7597 16.2736 18.7148C16.1921 18.7014 16.1142 18.6722 16.1006 18.6497C16.087 18.6276 16.0335 18.6092 15.9823 18.6092C15.8984 18.6092 15.5719 18.5159 15.3316 18.4232C15.2817 18.4037 15.1896 18.3777 15.1272 18.3649C14.9975 18.3386 14.8038 18.285 14.446 18.1764C14.3086 18.1345 14.1296 18.0896 14.0481 18.0762C13.9666 18.0628 13.889 18.0335 13.8751 18.0114C13.8614 17.9889 13.8001 17.9709 13.7388 17.9709C13.6775 17.9709 13.5917 17.9523 13.5483 17.9293C13.4222 17.8631 12.8041 17.6863 12.6178 17.6631C12.5237 17.6516 12.4357 17.6237 12.4218 17.6012C12.4082 17.5788 12.3477 17.5605 12.2875 17.5605C12.2275 17.5605 12.1112 17.532 12.0292 17.4975C11.7975 17.3999 11.5651 17.3323 11.4594 17.3323C11.4062 17.3323 11.3504 17.3118 11.3348 17.2869C11.3196 17.2617 11.2566 17.2412 11.1953 17.2412C11.134 17.2412 11.0484 17.222 11.0051 17.1988C10.8847 17.1345 10.4664 17.0133 10.3639 17.0133C10.314 17.0133 10.2604 16.9927 10.2448 16.9676C10.2296 16.9424 10.1565 16.9219 10.0827 16.9219C10.0088 16.9219 9.91292 16.9033 9.8696 16.8806C9.79275 16.8403 9.46166 16.7438 9.39327 16.7416C9.37419 16.741 9.28481 16.7096 9.19461 16.6718C9.10414 16.6338 8.9916 16.6028 8.94446 16.6028C8.89704 16.6028 8.82292 16.5842 8.7796 16.5613C8.66406 16.5008 7.9155 16.2866 7.56534 16.2138C7.4904 16.1982 7.38821 16.1684 7.33834 16.1473C7.2446 16.1082 6.877 15.9973 6.57752 15.9183C6.48378 15.8934 6.32028 15.8501 6.21428 15.8222C6.10801 15.7943 5.96985 15.7527 5.9069 15.73C5.84423 15.7073 5.7325 15.6775 5.65865 15.6641C5.58481 15.6507 5.50333 15.623 5.47771 15.6025C5.45183 15.582 5.36953 15.5541 5.29459 15.5407C5.15998 15.5161 5.08068 15.4945 4.59045 15.3494C4.45311 15.3087 4.27953 15.2643 4.20459 15.2507C4.12966 15.237 4.03374 15.2072 3.99177 15.1845C3.87187 15.1202 3.22932 15.1489 2.97834 15.2296ZM106.135 15.2178C106.553 15.3388 106.732 15.4936 106.947 15.9188L107.073 16.1694V42.6869C107.073 69.0913 107.073 69.2054 106.982 69.4519C106.704 70.2103 106.01 70.4415 104.935 70.1337C104.419 69.986 104.274 69.9452 104.008 69.8732C103.92 69.8494 102.592 69.4667 101.055 69.0223C99.5194 68.578 98.2215 68.2031 98.1716 68.1897C98.1217 68.176 96.9772 67.8483 95.6283 67.4611C94.2795 67.0739 93.0224 66.7161 92.8352 66.6663C91.482 66.3051 90.3258 65.1206 89.9745 63.7362C89.8516 63.2511 89.8274 22.503 89.9497 21.9752C90.2988 20.4709 91.4283 19.2976 92.926 18.8842C93.0382 18.8533 93.2121 18.8024 93.3121 18.7712C93.5105 18.7091 93.7127 18.6494 93.9933 18.5701C94.0931 18.5419 94.3487 18.4667 94.561 18.4026C94.7732 18.3386 95.0289 18.2639 95.1286 18.2366C95.2286 18.2089 95.4534 18.1411 95.6283 18.0855C95.803 18.03 96.0278 17.9613 96.1278 17.9326C96.4426 17.8426 96.753 17.752 97.0816 17.6543C97.2565 17.6023 97.4814 17.5367 97.5811 17.5085C97.6811 17.4803 97.8446 17.4313 97.9446 17.3996C98.0443 17.3679 98.2078 17.3194 98.3078 17.2918C98.4078 17.2644 98.6223 17.202 98.7847 17.1533C98.9471 17.1046 99.2537 17.0127 99.466 16.949C100.249 16.7142 100.812 16.5489 101.052 16.4841C101.187 16.4474 101.422 16.3749 101.574 16.3229C101.726 16.271 101.922 16.2116 102.009 16.1916C102.097 16.1714 102.485 16.0586 102.872 15.9413C103.259 15.8239 103.644 15.7109 103.728 15.6904C103.811 15.6698 103.934 15.6332 104 15.6088C104.067 15.5845 104.213 15.5385 104.325 15.507C104.438 15.4753 104.622 15.4198 104.734 15.3836C105.423 15.1615 105.79 15.118 106.135 15.2178ZM4.18933 15.4115C4.24765 15.4345 4.37709 15.4753 4.47709 15.5021C4.57683 15.5289 4.83243 15.6025 5.04471 15.6652C5.3698 15.7612 5.87774 15.9068 6.72522 16.1462C6.97183 16.216 7.37159 16.3339 7.49721 16.3736C7.55961 16.3935 7.69259 16.4321 7.79233 16.4597C7.89234 16.4871 8.22969 16.5823 8.5417 16.6712C8.85399 16.7599 9.18099 16.8526 9.26846 16.8767C9.47829 16.935 9.80856 17.031 10.1996 17.1473C10.3743 17.1993 10.589 17.262 10.6765 17.2863C10.7637 17.3109 11.0193 17.3835 11.2441 17.4475C11.4689 17.5115 11.7651 17.5958 11.9027 17.6344C12.0401 17.6732 12.2853 17.7443 12.4477 17.7925C12.6099 17.8409 12.8142 17.9 12.9017 17.9241C12.9892 17.9482 13.2344 18.0193 13.4467 18.082C13.659 18.1449 14.0884 18.2683 14.4005 18.3567C14.7127 18.4448 15.0297 18.5348 15.1046 18.557C15.1795 18.5789 15.3226 18.6202 15.4223 18.6489C16.6393 18.9975 16.9214 19.0886 17.1988 19.2237C18.1015 19.6634 18.8784 20.5806 19.2474 21.643L19.3736 22.0066L19.3861 42.6869C19.4003 65.9119 19.436 63.6051 19.049 64.4366C18.4953 65.6266 17.5497 66.4124 16.2853 66.7333C16.2355 66.7462 15.6324 66.924 14.9455 67.1289C14.2588 67.3339 12.8995 67.7369 11.9253 68.0247C10.9511 68.3123 9.98023 68.6001 9.76795 68.6642C9.55568 68.7279 9.32078 68.7971 9.24584 68.8177C9.09488 68.859 6.83313 69.5301 6.22545 69.7137C6.01318 69.7778 5.7731 69.8486 5.6919 69.8708C5.37634 69.957 5.22783 70.001 4.61334 70.1915C3.33205 70.5885 2.67124 70.4311 2.30391 69.642L2.20608 69.4322V42.8921V16.3519L2.35459 16.0474C2.54316 15.6603 2.7895 15.4594 3.20534 15.3535C3.3375 15.3199 4.06507 15.3628 4.18933 15.4115ZM23.8017 20.3748C23.6894 20.3852 23.578 20.4126 23.5543 20.4361C23.5306 20.4596 23.4763 20.4788 23.4336 20.4788C23.1314 20.4788 22.4084 21.0895 22.2179 21.5057C22.1839 21.5803 22.1275 21.6961 22.0931 21.7628C22.0588 21.8293 22.0305 21.9462 22.0305 22.0222C22.0305 22.0986 22.01 22.1735 21.9852 22.1889C21.955 22.2077 21.9397 29.1361 21.9397 42.8264C21.9397 56.5353 21.955 63.4355 21.9852 63.4355C22.01 63.4355 22.0305 63.502 22.0305 63.5835C22.0305 63.9898 22.6035 64.7715 23.0752 65.009C23.2126 65.0782 23.36 65.1524 23.4028 65.1737C23.5548 65.2498 24.1467 65.3155 24.4148 65.2856C24.5647 65.2692 24.8407 65.2454 25.028 65.2331C25.2154 65.2208 25.3994 65.1981 25.4367 65.1828C25.4743 65.1674 25.7196 65.1365 25.9817 65.1138C26.2441 65.0914 26.6324 65.0547 26.8447 65.0323C27.057 65.0101 27.4595 64.9721 27.7388 64.948C28.0181 64.9236 28.2721 64.8881 28.3031 64.8689C28.3342 64.8495 28.5653 64.8161 28.8171 64.7945C30.0526 64.6881 30.9922 64.5866 31.2502 64.5318C31.3625 64.508 31.581 64.4875 31.7353 64.4864C31.8898 64.4853 32.0672 64.4651 32.1293 64.4413C32.1914 64.4175 32.4124 64.3945 32.6206 64.3898C32.8285 64.3855 33.0296 64.3655 33.0678 64.3458C33.1057 64.3261 33.31 64.299 33.5221 64.2853C33.8474 64.2645 34.4905 64.1909 35.156 64.0979C35.2434 64.0859 35.4579 64.064 35.6328 64.0497C36.613 63.9693 37.6848 63.8516 37.8583 63.8054C37.9333 63.7857 38.1477 63.7646 38.3352 63.7589C38.5224 63.7534 38.6952 63.7296 38.7189 63.7061C38.7426 63.6828 38.8254 63.6637 38.9028 63.6637C38.9802 63.6637 39.0631 63.6442 39.0868 63.6207C39.1105 63.5972 39.1854 63.5679 39.253 63.5556C39.9798 63.4248 40.9962 62.3419 41.2488 61.4291C41.273 61.3413 41.3172 61.208 41.3469 61.1328C41.4158 60.9577 41.4493 25.1277 41.381 24.7528C41.23 23.9268 41.0174 23.4792 40.5133 22.9254C40.2828 22.672 39.5803 22.1661 39.4593 22.1661C39.4255 22.1661 39.3783 22.1486 39.3546 22.127C39.2715 22.052 38.8385 21.9382 38.6358 21.9382C38.5232 21.9382 38.4202 21.9202 38.4066 21.8983C38.3933 21.8761 38.193 21.8548 37.9616 21.8507C37.7303 21.8463 37.5213 21.8233 37.4976 21.7992C37.4736 21.7754 37.2578 21.7557 37.018 21.7557C36.7782 21.7557 36.5626 21.7363 36.5389 21.7125C36.4988 21.6723 36.1351 21.6258 35.0652 21.5243C33.4384 21.3702 32.8392 21.3018 32.6776 21.2517C32.6007 21.2279 32.362 21.2085 32.1465 21.2085C31.9312 21.2085 31.7424 21.188 31.7271 21.1628C31.7116 21.1379 31.5252 21.1174 31.3126 21.1174C31.1001 21.1174 30.8897 21.0977 30.8447 21.0736C30.8 21.0495 30.5763 21.0197 30.3477 21.0077C30.1191 20.9954 29.9106 20.9718 29.8842 20.9557C29.8316 20.9229 29.0503 20.8476 28.4116 20.8137C28.1868 20.8017 27.9835 20.7727 27.9598 20.7494C27.9361 20.7261 27.7906 20.707 27.6366 20.707C27.4826 20.707 27.2466 20.6846 27.112 20.6575C26.8692 20.6082 26.3357 20.5491 25.5503 20.4843C25.3255 20.4657 25.1111 20.438 25.0735 20.4227C24.9835 20.386 24.0619 20.3513 23.8017 20.3748ZM84.2782 20.4219C84.2594 20.4408 84.0566 20.47 83.8277 20.4873C82.9053 20.556 82.3925 20.6082 82.344 20.6386C82.3156 20.6561 82.0846 20.6897 81.83 20.7136C81.5755 20.7371 81.1733 20.7746 80.936 20.7967C80.189 20.8665 79.5996 20.9297 79.5053 20.9505C79.4555 20.9617 79.2148 20.9858 78.9707 21.0044C78.7265 21.0227 78.5159 21.0558 78.5025 21.0777C78.4892 21.0993 78.2941 21.1174 78.069 21.1174C77.8442 21.1174 77.6251 21.136 77.5826 21.159C77.5398 21.182 77.3215 21.2118 77.0973 21.2257C76.5691 21.258 75.7031 21.3601 75.6448 21.3965C75.62 21.4121 75.4165 21.429 75.1928 21.4337C74.9693 21.4386 74.7649 21.4567 74.7388 21.4736C74.7126 21.4909 74.5071 21.5185 74.2823 21.5352C73.5 21.5932 72.8741 21.666 72.7836 21.7095C72.7337 21.7336 72.5089 21.7631 72.2841 21.7754C70.5581 21.8696 69.8782 22.0343 69.2329 22.5145C68.9127 22.7528 68.4089 23.3402 68.28 23.6253C68.2516 23.6882 68.1819 23.842 68.1252 23.9673C68.0685 24.0929 68.0015 24.2981 67.9764 24.4234C67.9113 24.7479 67.9132 60.8671 67.9783 61.1782C68.0336 61.4428 68.1238 61.7068 68.18 61.7689C68.2018 61.7927 68.2192 61.8382 68.2192 61.8699C68.2192 62.0551 68.822 62.8108 69.2067 63.1077C69.5035 63.337 70.1801 63.6637 70.3583 63.6637C70.4093 63.6637 70.4859 63.6826 70.5289 63.7055C70.5717 63.7285 70.739 63.7529 70.9006 63.7594C71.0619 63.7657 71.2758 63.7876 71.3758 63.8079C71.6271 63.8588 72.9899 64.0032 73.6692 64.0511C73.8567 64.0642 74.112 64.0943 74.2371 64.1181C74.602 64.1874 76.2212 64.3625 77.5341 64.4749C77.7989 64.4976 78.0382 64.5302 78.066 64.5474C78.0938 64.5647 78.3475 64.6002 78.6292 64.6262C78.9113 64.6525 79.326 64.6922 79.5508 64.7146C79.7757 64.737 80.1751 64.7729 80.4389 64.7942C80.7024 64.8153 80.943 64.8481 80.9736 64.867C81.0041 64.8862 81.2583 64.9226 81.5387 64.9483C81.8191 64.974 82.2325 65.0139 82.4573 65.0369C82.6821 65.0599 83.05 65.0971 83.2748 65.1196C83.4996 65.1417 83.9697 65.1942 84.3196 65.2356C86.0045 65.4358 86.8697 64.9485 87.313 63.5496C87.4204 63.2109 87.4245 22.3943 87.3171 22.1366C87.2795 22.0463 87.249 21.9237 87.249 21.8641C87.249 21.8044 87.2285 21.7557 87.2035 21.7557C87.1784 21.7557 87.158 21.7161 87.158 21.6679C87.158 21.6195 87.1326 21.5527 87.1013 21.5196C87.0699 21.4865 87.0146 21.4011 86.9781 21.3303C86.8925 21.1639 86.5664 20.8367 86.4009 20.7508C86.3304 20.7141 86.2622 20.6722 86.2497 20.6577C86.2034 20.6038 85.9151 20.4788 85.8366 20.4788C85.7919 20.4788 85.7429 20.4583 85.7273 20.4334C85.6946 20.38 84.33 20.3694 84.2782 20.4219ZM25.0508 20.5948C25.4005 20.6334 25.8604 20.684 26.0727 20.7075C26.285 20.7311 26.6537 20.7702 26.8919 20.7948C27.13 20.8194 27.4061 20.8506 27.505 20.8643C27.6039 20.8777 27.9914 20.9201 28.3661 20.9584C28.7408 20.9965 29.2007 21.0474 29.388 21.0712C29.5754 21.0952 29.933 21.136 30.1828 21.162C30.6657 21.2123 31.6118 21.3166 32.2492 21.3896C32.4615 21.4143 32.8345 21.455 33.0781 21.481C33.6997 21.5467 34.2687 21.6091 34.929 21.6843C35.2413 21.7199 35.7214 21.7727 35.9961 21.8014C36.271 21.8302 36.7512 21.8832 37.0635 21.9193C37.3757 21.9555 37.815 22.0053 38.0398 22.0302C38.2646 22.0553 38.5303 22.0849 38.6303 22.0961C39.7683 22.2244 40.8594 23.2789 41.1327 24.5145C41.2292 24.9504 41.2251 60.6444 41.1283 61.1183C40.9215 62.1347 40.0076 63.1367 39.0391 63.4084C38.7214 63.4976 38.647 63.5083 37.2452 63.6615C36.5582 63.7365 35.8121 63.8194 35.5873 63.8454C35.3625 63.8716 34.7085 63.9436 34.1341 64.0054C33.5597 64.0673 32.8953 64.1398 32.658 64.1668C32.4206 64.1937 32.0527 64.2355 31.8405 64.2596C31.3995 64.3097 29.8836 64.4771 29.6 64.5072C29.4959 64.5182 29.2166 64.5488 28.9792 64.5753C28.7419 64.6019 27.8938 64.6946 27.0946 64.7819C26.2951 64.8689 25.3634 64.971 25.0236 65.0087C23.3804 65.191 22.57 64.7931 22.2117 63.6278C22.0871 63.2234 22.067 22.5314 22.191 22.0537C22.3981 21.2553 22.9507 20.7338 23.7791 20.5546C23.9728 20.5127 24.4413 20.5275 25.0508 20.5948ZM85.4586 20.5735C86.2933 20.7253 86.9138 21.3344 87.0942 22.1787C87.1847 22.6026 87.1874 62.9394 87.0969 63.4128C86.8544 64.6807 85.8955 65.209 84.2286 64.9929C84.0288 64.9669 83.6506 64.9226 83.3885 64.8944C83.126 64.8662 82.6563 64.8139 82.344 64.7778C81.7962 64.7146 81.5049 64.6831 80.4817 64.5756C80.2196 64.5483 79.7596 64.4965 79.4598 64.4612C79.1601 64.4257 78.7004 64.3745 78.438 64.3474C78.1758 64.3203 77.7875 64.2779 77.5752 64.2533C76.9504 64.1805 75.5903 64.03 75.0998 63.9792C74.3314 63.8998 73.951 63.8585 73.079 63.7597C72.6168 63.7075 72.0342 63.6421 71.7846 63.6142C70.8657 63.5121 70.3703 63.4374 70.1907 63.3737C69.1849 63.0174 68.4304 62.1832 68.1958 61.1681C68.096 60.7355 68.0966 24.8448 68.1966 24.4234C68.4963 23.1591 69.7804 22.0857 71.0036 22.0767C71.1238 22.0756 71.3587 22.0553 71.526 22.0313C71.693 22.0072 72.1364 21.9544 72.5111 21.9139C72.8858 21.8734 73.3166 21.8214 73.4686 21.7981C73.6204 21.7749 73.8327 21.7557 73.9403 21.7557C74.0477 21.7557 74.2608 21.7358 74.4134 21.7111C74.5663 21.6868 74.9976 21.6345 75.3723 21.5951C75.747 21.556 76.2171 21.5054 76.4171 21.4829C76.6168 21.4608 76.9948 21.4195 77.2572 21.3913C77.5194 21.3631 77.8875 21.3215 78.0747 21.2988C78.2622 21.2761 78.7219 21.2255 79.0966 21.1861C79.4713 21.1469 79.9413 21.0958 80.1411 21.0723C80.3411 21.0487 80.709 21.0074 80.9586 20.9806C81.2085 20.9535 81.7807 20.89 82.2303 20.8391C83.1805 20.7319 83.6215 20.6851 84.3411 20.6153C84.6275 20.5877 84.8711 20.5557 84.8823 20.5447C84.9172 20.5097 85.1801 20.5226 85.4586 20.5735ZM45.9423 22.3815C45.8674 22.3921 45.7867 22.4201 45.763 22.4433C45.7393 22.4663 45.6715 22.4854 45.6126 22.4854C45.5052 22.4854 45.0488 22.6874 44.9207 22.7916C44.8831 22.8223 44.7815 22.8945 44.6945 22.9522C44.4125 23.1402 44.0504 23.6601 43.828 24.1955C43.8073 24.2456 43.776 24.3788 43.7582 24.4918C43.6558 25.1468 43.731 61.4291 43.8348 61.4291C43.8574 61.4291 43.876 61.4806 43.876 61.5432C43.876 61.6059 43.8912 61.6573 43.91 61.6573C43.9288 61.6573 43.982 61.7498 44.028 61.8625C44.0743 61.9752 44.1305 62.0674 44.1531 62.0674C44.1754 62.0674 44.194 62.0945 44.194 62.1279C44.194 62.4743 45.2551 63.1378 46.0333 63.2773C46.4988 63.3611 62.7782 63.378 63.1859 63.2954C63.8911 63.1523 64.338 62.9419 64.717 62.5742C64.9688 62.3301 65.3127 61.891 65.3127 61.8135C65.3127 61.7936 65.3525 61.6937 65.4013 61.5916C65.6441 61.083 65.6305 62.2048 65.6296 42.8464C65.6288 23.4442 65.6424 24.5044 65.3885 23.9974C65.1566 23.5339 65.1263 23.4918 64.7604 23.1194C64.4473 22.8012 63.9044 22.4854 63.6706 22.4854C63.6096 22.4854 63.5341 22.4597 63.5028 22.4283C63.4477 22.3733 46.3137 22.3273 45.9423 22.3815ZM63.4246 22.5514C64.383 22.7528 65.1489 23.5107 65.3852 24.4918C65.4754 24.8667 65.4749 60.7385 65.3847 61.1098C65.165 62.0133 64.6598 62.6002 63.7911 62.9613L63.4733 63.0935L54.786 63.1058C45.3216 63.1189 45.8336 63.1318 45.2723 62.865C44.6937 62.5898 44.1923 62.0253 43.9626 61.39L43.8533 61.0871L43.8416 42.946C43.8288 22.9634 43.8067 24.5449 44.1062 23.9151C44.273 23.5643 44.6687 23.123 45.0237 22.8918C45.26 22.738 45.381 22.6904 45.9197 22.5393C46.2042 22.4595 63.0423 22.4712 63.4246 22.5514ZM43.9305 73.3402C43.8888 73.382 43.876 74.3763 43.876 77.5373V81.6795L43.683 81.4532C43.5768 81.3287 43.4718 81.2253 43.4498 81.2237C43.4277 81.2217 43.3767 81.1823 43.3364 81.1358C43.2233 81.0067 42.5393 80.5903 42.3336 80.526C42.2325 80.4942 42.1502 80.4529 42.1502 80.4337C42.1502 80.4149 42.0922 80.3993 42.0213 80.3993C41.9508 80.3993 41.8774 80.384 41.8586 80.3651C41.7189 80.2247 39.7375 80.0898 39.5912 80.2108C39.5623 80.2346 39.4413 80.2685 39.3225 80.2863C39.2034 80.3041 39.0949 80.3369 39.0813 80.3591C39.0677 80.3812 39.0064 80.3993 38.9451 80.3993C38.8838 80.3993 38.7979 80.4176 38.7546 80.4398C38.7113 80.4619 38.6145 80.5076 38.5396 80.5413C37.9592 80.802 36.8817 81.7153 36.8817 81.9463C36.8817 81.9692 36.8664 81.9947 36.8476 82.0029C36.7882 82.0297 36.564 82.401 36.564 82.4732C36.564 82.5115 36.5435 82.5427 36.5185 82.5427C36.4934 82.5427 36.4729 82.5717 36.4729 82.6073C36.4729 82.6429 36.4389 82.7403 36.3972 82.824C36.2555 83.108 36.246 83.1343 36.246 83.2396C36.246 83.2976 36.2277 83.3647 36.2051 83.3885C36.1827 83.4123 36.153 83.514 36.1389 83.6142C36.1247 83.7146 36.0936 83.9198 36.0699 84.0703C36.0459 84.2208 36.0266 84.5902 36.0266 84.8911C36.0266 85.1921 36.0459 85.5615 36.0699 85.7119C36.0936 85.8624 36.1239 86.0676 36.1367 86.1681C36.1498 86.2682 36.1767 86.3913 36.1969 86.4417C36.2168 86.4917 36.259 86.6149 36.2904 86.7153C36.3446 86.8893 36.3917 87.0083 36.5389 87.3443C36.9427 88.2661 38.4102 89.5652 39.0475 89.5652C39.0971 89.5652 39.1514 89.5791 39.1685 89.5964C39.3645 89.7931 40.8733 89.8618 41.4897 89.7017C42.4789 89.4448 43.3596 88.9162 43.8059 88.3112C43.8664 88.2292 43.8732 88.2841 43.8746 88.8606C43.8754 89.2965 43.8934 89.5189 43.9305 89.5562C44.0155 89.6415 44.7842 89.6287 44.9104 89.54L45.0115 89.4689V81.4483V73.4274L44.9104 73.3566C44.7842 73.2676 44.0155 73.2551 43.9305 73.3402ZM4.17053 73.3656C4.06889 73.3883 4.04409 89.5455 4.14546 89.6473C4.24111 89.7433 5.05997 89.72 5.15126 89.6188C5.22047 89.5417 5.22647 88.9113 5.22647 81.4776V73.42L5.10412 73.3735C4.99103 73.3303 4.35202 73.3248 4.17053 73.3656ZM75.4974 73.3757L75.3952 73.4195L75.3958 81.4809C75.3963 86.4729 75.4129 89.5685 75.4396 89.6109C75.5029 89.7116 76.38 89.7359 76.5078 89.6404C76.6038 89.5687 76.6572 73.4887 76.5618 73.393C76.5078 73.3388 75.617 73.3243 75.4974 73.3757ZM8.74799 76.5657C8.73164 76.5925 8.64771 76.6144 8.56187 76.6144C8.47576 76.6144 8.40545 76.635 8.40545 76.6601C8.40545 76.685 8.38011 76.7058 8.34877 76.7061C8.31744 76.7064 8.24195 76.7701 8.18064 76.8481C7.64354 77.5305 8.03649 78.4684 8.85535 78.458C9.93391 78.4443 10.1198 76.7849 9.063 76.6049C8.9886 76.592 8.89405 76.5671 8.8529 76.5493C8.81175 76.5315 8.76461 76.5389 8.74799 76.5657ZM33.1822 76.5657C33.1659 76.5925 33.0912 76.6144 33.0168 76.6144C32.8757 76.6144 32.819 76.6478 32.619 76.8486C32.3966 77.0719 32.3855 77.1017 32.3855 77.4771C32.3855 78.238 33.0187 78.6895 33.6572 78.3839C34.454 78.0022 34.3398 76.7231 33.4983 76.6024C33.4234 76.5914 33.3283 76.5679 33.2872 76.5499C33.246 76.5318 33.1989 76.5389 33.1822 76.5657ZM15.1992 80.2108C15.1844 80.2346 15.0703 80.2682 14.9455 80.2855C14.8206 80.3027 14.7185 80.3353 14.7185 80.358C14.7185 80.3807 14.6468 80.3993 14.5596 80.3993C14.4721 80.3993 14.4005 80.4198 14.4005 80.445C14.4005 80.4701 14.3697 80.4907 14.3318 80.4907C14.2683 80.4907 14.1637 80.5353 13.9917 80.6357C13.9544 80.6576 13.8879 80.6877 13.8443 80.7024C13.8004 80.7172 13.7647 80.7473 13.7647 80.7695C13.7647 80.7916 13.7339 80.8097 13.6966 80.8097C13.659 80.8097 13.6285 80.8288 13.6285 80.8524C13.6285 80.8756 13.5889 80.9074 13.5404 80.923C13.4922 80.9383 13.35 81.0475 13.2246 81.1654C13.0993 81.2833 12.96 81.4127 12.9151 81.4532C12.8246 81.5345 12.7595 81.613 12.5605 81.8814C12.4864 81.9818 12.415 82.074 12.4025 82.0866C12.3899 82.0992 12.3474 82.1712 12.3082 82.2461C12.2687 82.3214 12.215 82.424 12.1883 82.4743C12.0436 82.7471 11.9027 83.0779 11.9027 83.145C11.9027 83.1868 11.8823 83.2339 11.8572 83.2495C11.8321 83.2651 11.8117 83.3384 11.8117 83.4123C11.8117 83.4864 11.7934 83.5827 11.7711 83.6262C11.5526 84.0525 11.5526 86.0488 11.7711 86.475C11.7934 86.5188 11.8117 86.5946 11.8117 86.6441C11.8117 86.735 11.8485 86.842 11.9929 87.1711C12.164 87.5613 12.2837 87.7867 12.3194 87.7867C12.3401 87.7867 12.3567 87.8135 12.3567 87.8461C12.3567 87.92 12.7584 88.424 13.0093 88.6653C13.435 89.0741 14.1012 89.4555 14.6503 89.604C14.7503 89.6311 14.9476 89.6848 15.0888 89.7233C15.6183 89.8675 17.2454 89.7794 17.4274 89.5967C17.4446 89.5794 17.4988 89.5652 17.5481 89.5652C17.8405 89.5652 18.8144 88.9477 19.2262 88.5011L19.4417 88.2672V91.5106C19.4417 94.4261 19.4491 94.7569 19.5136 94.7818C19.6335 94.8281 20.3955 94.8127 20.4895 94.7621C20.5756 94.7159 20.5772 94.5876 20.5772 87.5853V80.4554L20.4652 80.3818C20.3153 80.2833 19.6027 80.277 19.5066 80.3733C19.4567 80.4234 19.4417 80.5826 19.4417 81.0625V81.6869L19.1553 81.3966C18.8318 81.0688 18.7664 81.0138 18.5114 80.8546C18.1195 80.6097 17.8806 80.4907 17.7811 80.4907C17.7484 80.4907 17.7086 80.4701 17.6933 80.445C17.6778 80.4198 17.6154 80.3993 17.5544 80.3993C17.4933 80.3993 17.4435 80.3831 17.4435 80.3637C17.4435 80.2398 15.2722 80.092 15.1992 80.2108ZM56.4243 80.2584C56.2693 80.3002 56.1281 80.3489 56.1101 80.367C56.0924 80.3848 56.0199 80.3993 55.9493 80.3993C55.8785 80.3993 55.8205 80.4198 55.8205 80.445C55.8205 80.4701 55.7695 80.4907 55.7071 80.4907C55.6447 80.4907 55.5935 80.5112 55.5935 80.5361C55.5935 80.5613 55.555 80.5818 55.5082 80.5818C55.4613 80.5818 55.3975 80.6124 55.3665 80.6502C55.3354 80.6877 55.2817 80.7186 55.2474 80.7186C55.2128 80.7186 55.1847 80.7391 55.1847 80.7643C55.1847 80.7892 55.1526 80.8097 55.1136 80.8097C54.9425 80.8097 53.8222 81.8784 53.8222 82.0415C53.8222 82.0664 53.8029 82.0866 53.7789 82.0866C53.7552 82.0866 53.6999 82.1635 53.6565 82.2576C53.6129 82.3518 53.5658 82.4388 53.5522 82.4513C53.5004 82.4984 53.4135 82.6806 53.4135 82.7416C53.4135 82.7767 53.3827 82.8306 53.3453 82.8618C53.3077 82.893 53.2772 82.9674 53.2772 83.027C53.2772 83.0867 53.2568 83.1354 53.2317 83.1354C53.2069 83.1354 53.1865 83.1843 53.1865 83.244C53.1865 83.3036 53.1557 83.4259 53.1183 83.516C53.0807 83.606 53.0502 83.7409 53.0502 83.8153C53.0502 83.89 53.0298 83.9636 53.0047 83.9792C52.9464 84.0153 52.9437 85.7453 53.0017 85.9369C53.0251 86.0137 53.0786 86.2102 53.1203 86.3733C53.2091 86.7191 53.2224 86.7563 53.3957 87.1484C53.468 87.3115 53.5424 87.4516 53.5612 87.46C53.5797 87.4682 53.5952 87.4956 53.5952 87.5205C53.5952 87.6012 53.9871 88.1679 54.2277 88.4352C54.5868 88.8338 55.4948 89.4741 55.7008 89.4741C55.7387 89.4741 55.7823 89.4946 55.7978 89.5198C55.8134 89.5447 55.8725 89.5652 55.9292 89.5652C55.9861 89.5652 56.0466 89.5794 56.0638 89.5967C56.2442 89.7778 57.8067 89.8664 58.2871 89.7228C58.4168 89.6842 58.5942 89.6314 58.6817 89.606C58.7692 89.5802 58.8817 89.5436 58.9316 89.5247C59.0627 89.4749 59.745 89.1375 59.7717 89.1094C59.7842 89.0962 59.8763 89.0319 59.9761 88.9665C60.0761 88.9009 60.299 88.7167 60.4715 88.5575L60.7849 88.2675L60.7524 89.0418C60.7105 90.0394 60.6115 90.9688 60.5396 91.0451C60.517 91.0689 60.4979 91.1406 60.4971 91.2047C60.4963 91.2687 60.4655 91.3609 60.429 91.4096C60.3922 91.458 60.3622 91.5352 60.3622 91.5806C60.3622 91.6257 60.3418 91.663 60.3167 91.663C60.2919 91.663 60.2715 91.6931 60.2715 91.73C60.2715 91.8928 59.8505 92.4955 59.5376 92.7801C59.3147 92.9831 59.1657 93.0803 58.8635 93.2184C58.7512 93.2699 58.6237 93.3309 58.5803 93.3539C58.5367 93.3768 58.4397 93.3957 58.3645 93.3957C58.2893 93.3957 58.2277 93.4132 58.2277 93.4346C58.2277 93.4784 57.5982 93.5498 57.2511 93.5457C56.8609 93.5407 56.3202 93.4767 56.3202 93.4354C56.3202 93.4135 56.2485 93.3957 56.1611 93.3957C56.0736 93.3957 56.0022 93.3752 56.0022 93.3503C56.0022 93.3251 55.9562 93.3032 55.9 93.3013C55.8439 93.2994 55.7365 93.2592 55.6616 93.2121C55.5866 93.1648 55.4575 93.0915 55.3746 93.0491C55.2915 93.0066 55.1662 92.9186 55.0959 92.8532C55.0253 92.788 54.9092 92.683 54.8378 92.6198C54.6651 92.4671 54.458 92.2214 54.458 92.1689C54.458 92.1456 54.4427 92.1196 54.4239 92.1114C54.3479 92.0775 54.1402 91.5729 54.0707 91.2525C54.0299 91.0646 53.9718 90.8386 53.9416 90.751L53.8868 90.5912L53.3955 90.5784C53.0723 90.5699 52.8826 90.5833 52.8409 90.618C52.7682 90.6788 52.7551 90.9595 52.823 91.0016C52.848 91.0172 52.8685 91.1404 52.8685 91.2752C52.8685 91.4104 52.8889 91.5335 52.914 91.5489C52.9388 91.5645 52.9592 91.6378 52.9592 91.7119C52.9592 91.7861 52.9788 91.8821 53.0025 91.9259C53.0262 91.9694 53.111 92.1486 53.1908 92.3243C53.5107 93.0269 54.0914 93.6754 54.6849 93.9933C54.7972 94.0535 54.8994 94.1139 54.9122 94.1279C55.0057 94.2319 55.8382 94.5257 56.2066 94.5848C58.0836 94.8866 59.5605 94.4746 60.6252 93.3525C60.8742 93.0901 61.3615 92.3987 61.3615 92.3076C61.3615 92.2791 61.3819 92.2559 61.4067 92.2559C61.4318 92.2559 61.4522 92.2044 61.4522 92.1418C61.4522 92.0791 61.4727 92.0277 61.4977 92.0277C61.5225 92.0277 61.543 91.9891 61.543 91.9418C61.543 91.8944 61.5735 91.797 61.6108 91.7251C61.6481 91.6534 61.6789 91.5524 61.6789 91.501C61.6792 91.4495 61.6977 91.388 61.7203 91.3642C61.765 91.3171 61.795 91.1163 61.8664 90.386C61.8937 90.1094 61.922 87.9197 61.9337 85.1959L61.9542 80.4844L61.8509 80.3979C61.7026 80.2737 60.8914 80.2658 60.8339 80.3881C60.8132 80.4318 60.7854 80.7279 60.7723 81.0458L60.7483 81.624L60.4189 81.3071C60.1058 81.0059 59.6365 80.6723 59.3403 80.5405C59.2654 80.5071 59.1687 80.4619 59.1253 80.4398C59.0817 80.4176 59.0052 80.3993 58.955 80.3993C58.9046 80.3993 58.8635 80.3823 58.8635 80.3615C58.8635 80.2017 56.9353 80.1202 56.4243 80.2584ZM67.3131 80.2146C67.2769 80.2376 67.1491 80.2701 67.0292 80.2866C66.9096 80.3032 66.8 80.3353 66.7861 80.358C66.772 80.3807 66.7126 80.3993 66.654 80.3993C66.5954 80.3993 66.4689 80.4387 66.3727 80.4868C66.2768 80.535 66.1676 80.587 66.1302 80.6026C65.9422 80.6808 65.4037 81.0455 65.4035 81.0948C65.4035 81.1137 65.3778 81.1293 65.3468 81.1298C65.2356 81.1312 64.4497 82.047 64.4497 82.1747C64.4497 82.2015 64.4339 82.2234 64.4146 82.2234C64.3952 82.2234 64.3388 82.3156 64.2895 82.4281C64.2402 82.5408 64.1846 82.6333 64.1658 82.6333C64.1472 82.6336 64.1317 82.6839 64.1317 82.7452C64.1317 82.8065 64.1113 82.8691 64.0865 82.8847C64.0614 82.9001 64.041 82.9589 64.041 83.015C64.041 83.0713 64.0216 83.1367 63.9982 83.1605C63.9478 83.2114 63.8693 83.505 63.8036 83.8878C63.7483 84.2104 63.7358 85.5311 63.7854 85.826C63.8399 86.1514 63.9608 86.6201 64.0028 86.6674C64.0238 86.6912 64.041 86.7478 64.041 86.7933C64.041 86.8389 64.0595 86.9117 64.0824 86.9552C64.105 86.9987 64.1808 87.1574 64.2508 87.3079C64.5734 88.0034 65.5967 89.1548 65.8921 89.1548C65.919 89.1548 65.9476 89.1709 65.9561 89.1906C65.9847 89.2579 66.5706 89.5203 66.8796 89.604C66.9793 89.6311 67.1766 89.6848 67.318 89.7233C67.8336 89.8637 69.1239 89.7983 69.5591 89.6092C69.609 89.5876 69.7447 89.5392 69.8602 89.5014C70.3158 89.3537 70.9077 88.969 71.3189 88.5537L71.5347 88.3359V88.8823C71.5347 89.5978 71.5456 89.6109 72.1408 89.6109C72.7866 89.6109 72.7165 90.1778 72.7165 84.9595C72.7165 79.7511 72.7828 80.3082 72.162 80.3082C71.5451 80.3082 71.5347 80.3199 71.5347 81.0135V81.5714L71.2737 81.3265C71.1301 81.1916 70.9205 81.0209 70.808 80.9468C70.6957 80.8729 70.5831 80.7957 70.5583 80.7758C70.5333 80.7555 70.3902 80.6808 70.2403 80.6097C70.0905 80.5385 69.9324 80.4622 69.8891 80.4398C69.8455 80.4176 69.7703 80.3993 69.7212 80.3993C69.6724 80.3993 69.6212 80.3807 69.607 80.358C69.5932 80.3353 69.4795 80.3027 69.3547 80.2855C69.2299 80.2682 69.1163 80.2354 69.1024 80.2127C69.0689 80.1585 67.3987 80.1601 67.3131 80.2146ZM81.8442 80.2417C81.7567 80.2753 81.6292 80.3041 81.5605 80.3057C81.4919 80.3071 81.4355 80.3287 81.4355 80.3539C81.4355 80.3788 81.3842 80.3993 81.3213 80.3993C81.2586 80.3993 81.1717 80.4176 81.1283 80.4398C81.085 80.4622 80.927 80.5385 80.7771 80.6094C80.6272 80.6803 80.4978 80.7544 80.4893 80.7741C80.4812 80.7938 80.4542 80.8097 80.4297 80.8097C80.3899 80.8097 80.2256 80.923 79.9659 81.129C79.6787 81.3572 79.1061 82.0573 78.9781 82.3375C78.9552 82.3876 78.8971 82.4902 78.8494 82.5654C78.8017 82.6407 78.7611 82.7449 78.7592 82.7972C78.7573 82.8494 78.7421 82.9064 78.7249 82.9236C78.4627 83.1868 78.2897 84.8692 78.4311 85.7804C78.4603 85.9686 78.4968 86.2044 78.5123 86.3049C78.5279 86.405 78.5688 86.5276 78.6028 86.5771C78.6371 86.6266 78.6652 86.7038 78.6652 86.7487C78.6652 86.7938 78.6837 86.866 78.7064 86.9095C78.7293 86.953 78.8126 87.1325 78.8922 87.3079C79.1685 87.9186 79.6408 88.5058 80.2092 88.9457C80.4752 89.1515 81.2728 89.5652 81.4038 89.5652C81.4469 89.5652 81.5178 89.5849 81.5611 89.609C81.8715 89.7813 83.2868 89.8528 83.7958 89.7217C84.7267 89.482 85.4829 89.0724 85.9666 88.5457L86.159 88.3361V88.8823C86.159 89.5969 86.1704 89.6109 86.762 89.6109C87.0697 89.6109 87.2105 89.5917 87.2841 89.54L87.3852 89.4689V84.9623V80.4554L87.2732 80.3818C87.1389 80.2934 86.4811 80.2786 86.3263 80.3607C86.1701 80.4431 86.1603 80.4825 86.1595 81.0299L86.159 81.5462L86.0252 81.4404C85.9516 81.3818 85.8895 81.3137 85.8873 81.2885C85.8794 81.2051 84.9373 80.5818 84.8188 80.5818C84.7815 80.5818 84.751 80.5613 84.751 80.5361C84.751 80.5112 84.7011 80.4907 84.6401 80.4907C84.579 80.4907 84.5166 80.4701 84.5011 80.445C84.4858 80.4198 84.4267 80.3993 84.3697 80.3993C84.3131 80.3993 84.2512 80.384 84.2324 80.3651C84.0722 80.2042 82.1933 80.1071 81.8442 80.2417ZM8.34441 80.3916C8.2177 80.532 8.23024 89.4954 8.35722 89.5635C8.40545 89.5895 8.627 89.6109 8.84963 89.6109C9.49709 89.6109 9.42733 90.1729 9.42733 84.9508V80.4825L9.32024 80.3954C9.16627 80.2701 8.45641 80.2674 8.34441 80.3916ZM23.2218 80.3643C23.0673 80.4389 23.0698 80.3782 23.0907 83.7056C23.1136 87.3424 23.1213 87.4294 23.4752 88.1971C23.6878 88.6576 24.5775 89.4741 24.8669 89.4741C24.9026 89.4741 24.9446 89.4946 24.9598 89.5198C24.9754 89.5447 25.0345 89.5652 25.0912 89.5652C25.1481 89.5652 25.2086 89.5794 25.2258 89.5967C25.4705 89.8424 27.1257 89.8533 27.6848 89.6128C27.735 89.5915 27.8677 89.5392 27.9802 89.4971C28.5552 89.2817 29.1645 88.746 29.437 88.2166C29.5948 87.9099 29.6425 87.7719 29.7468 87.3188C29.8515 86.8644 29.8133 80.4794 29.7054 80.3867C29.5621 80.2636 28.8514 80.274 28.7154 80.4012L28.616 80.4942V83.6591C28.616 85.7196 28.6002 86.8337 28.5705 86.8521C28.5457 86.8674 28.5252 86.9714 28.5252 87.0827C28.5252 87.1941 28.5048 87.2852 28.4797 87.2852C28.4546 87.2852 28.4342 87.3369 28.4342 87.4001C28.4342 87.4633 28.3832 87.5963 28.3208 87.6956C28.2584 87.7949 28.2072 87.8937 28.2072 87.915C28.2072 87.9824 27.7633 88.3796 27.6881 88.3796C27.6489 88.3796 27.6167 88.4002 27.6167 88.4253C27.6167 88.4502 27.5772 88.4708 27.5287 88.4708C27.4802 88.4708 27.4279 88.4913 27.4123 88.5164C27.3971 88.5416 27.308 88.5621 27.2145 88.5621C27.121 88.5621 27.0227 88.584 26.9962 88.6106C26.9652 88.6418 26.7703 88.6516 26.4534 88.6379C25.7653 88.6084 25.6321 88.5835 25.2803 88.419C25.131 88.349 24.801 88.0456 24.801 87.978C24.801 87.9482 24.7843 87.9235 24.7639 87.9235C24.7056 87.9235 24.4914 87.4272 24.4197 87.1257C24.2881 86.5741 24.256 85.7856 24.256 83.1269V80.4554L24.144 80.3818C24.0126 80.2953 23.3886 80.2835 23.2218 80.3643ZM32.783 80.3716C32.6522 80.4712 32.6607 89.4935 32.7912 89.5635C32.9604 89.6544 33.6305 89.6224 33.7638 89.517L33.8826 89.4232L33.8839 84.9718L33.885 80.5202L33.7861 80.414C33.6676 80.2876 32.934 80.2567 32.783 80.3716ZM89.0428 80.3831C88.9259 80.5002 89.1641 80.9881 89.4734 81.2658C89.4876 81.2784 89.6914 81.5348 89.9268 81.8357C90.1623 82.1367 90.4887 82.5545 90.6525 82.7641C90.8163 82.9734 91.0116 83.221 91.0866 83.314C91.1615 83.4068 91.2841 83.5614 91.3591 83.6574C91.434 83.7535 91.5166 83.855 91.5425 83.8829C91.5684 83.9108 91.6498 84.0156 91.7237 84.116C91.7978 84.2161 91.8684 84.3086 91.8812 84.3212C91.8937 84.3335 91.9698 84.4293 92.0504 84.5332L92.1965 84.7229L92.0967 84.8525C92.0417 84.924 91.976 85.0044 91.9504 85.0312C91.9251 85.058 91.8531 85.1554 91.7905 85.2476C91.7281 85.3396 91.6616 85.4151 91.643 85.4154C91.6242 85.4154 91.609 85.4446 91.609 85.4802C91.609 85.5158 91.5934 85.5516 91.5746 85.5598C91.5378 85.5762 91.1103 86.1177 90.7702 86.5785C90.6964 86.6786 90.6146 86.7828 90.5887 86.8097C90.5628 86.8365 90.4906 86.9339 90.428 87.0261C90.3656 87.118 90.2991 87.1935 90.2805 87.1938C90.2617 87.1938 90.2465 87.2157 90.2465 87.242C90.2465 87.2685 90.1852 87.3558 90.1102 87.436C90.0356 87.5161 89.9742 87.5947 89.974 87.6108C89.974 87.6269 89.9029 87.7191 89.8159 87.816C89.729 87.9129 89.6576 88.0042 89.6571 88.0193C89.6565 88.0343 89.6203 88.0891 89.5764 88.1408C89.5328 88.1928 89.4153 88.3424 89.3153 88.4738C89.2153 88.6048 89.0813 88.7758 89.0172 88.8535C88.5085 89.4724 88.5575 89.6112 89.2851 89.6103C89.8906 89.6095 89.8881 89.6106 90.2503 89.1266C90.4263 88.8916 90.5945 88.6735 90.6242 88.642C90.6536 88.6106 90.7389 88.5028 90.8133 88.4024C90.8879 88.3022 90.9738 88.1892 91.004 88.1517C91.0746 88.0644 92.0583 86.7867 92.281 86.4934C92.3733 86.3716 92.4695 86.2485 92.4946 86.2198C92.5194 86.1913 92.6276 86.0499 92.7344 85.9057C92.969 85.5894 92.9636 85.5899 93.1543 85.8602C93.2385 85.9793 93.3195 86.0871 93.3342 86.0996C93.3543 86.1166 94.1838 87.1755 94.4593 87.5361C94.4787 87.561 94.5413 87.6431 94.5986 87.7183C94.6561 87.7936 94.7523 87.9167 94.8128 87.9919C94.8733 88.0672 95.1523 88.4264 95.4327 88.7901C95.7134 89.1537 95.9728 89.482 96.0093 89.5198C96.1131 89.6268 97.1083 89.6459 97.211 89.5428C97.3004 89.453 97.308 89.3211 97.2282 89.2379C97.1963 89.2048 97.1301 89.1233 97.0805 89.0571C96.7459 88.6078 96.4006 88.172 96.3693 88.1591C96.3488 88.1509 96.3322 88.1167 96.3322 88.0833C96.3322 88.0497 96.3159 88.0155 96.296 88.0073C96.2761 87.9988 96.1289 87.8176 95.969 87.6045C95.8087 87.3911 95.6616 87.21 95.6417 87.2015C95.6218 87.1933 95.6055 87.1591 95.6055 87.1257C95.6055 87.092 95.5872 87.0578 95.5648 87.0496C95.5425 87.0411 95.3943 86.86 95.2354 86.6469C95.0765 86.4335 94.8177 86.095 94.6599 85.8944C94.3062 85.4446 94.2969 85.4329 94.131 85.2093C94.0566 85.1097 93.9598 84.9885 93.9157 84.9401C93.7582 84.768 93.8034 84.5759 94.0612 84.3212C94.1067 84.276 94.6007 83.655 94.7721 83.4273C94.8683 83.2995 95.0185 83.1066 95.106 82.9988C95.1934 82.8908 95.3163 82.7389 95.379 82.6612C95.442 82.5835 95.5946 82.3865 95.718 82.2234C95.8414 82.0604 95.9551 81.9167 95.9701 81.9041C96.051 81.8371 96.8622 80.7651 96.9268 80.6398L97.0026 80.4929L97.0298 80.6302C97.0451 80.7057 97.1677 80.9977 97.3026 81.2789C97.4377 81.5602 97.6015 81.9017 97.6669 82.0382C97.7321 82.1745 97.7855 82.3132 97.7855 82.346C97.7855 82.3788 97.8059 82.4059 97.831 82.4059C97.856 82.4059 97.8765 82.4265 97.8765 82.4516C97.8765 82.4765 97.9811 82.7178 98.1089 82.9873C98.5528 83.9236 98.8158 84.4818 98.8978 84.6632C99.0417 84.9803 99.4194 85.7834 99.6913 86.3503C100.201 87.413 100.412 87.8581 100.534 88.1287C100.737 88.5796 101.101 89.3515 101.174 89.4856C101.236 89.5986 101.235 89.6254 101.165 89.7592C101.026 90.0262 101.01 90.0648 101.01 90.1346C101.01 90.1726 100.992 90.2038 100.97 90.2038C100.947 90.2038 100.916 90.2571 100.899 90.3228C100.883 90.3882 100.828 90.5371 100.776 90.6533C100.725 90.7696 100.667 90.9059 100.647 90.9562C100.627 91.0063 100.567 91.1456 100.514 91.2659C100.461 91.3861 100.385 91.5707 100.346 91.6764C100.307 91.7817 100.224 91.9809 100.161 92.1191C100.052 92.3579 100.011 92.4531 99.9077 92.7117C99.8406 92.8792 99.7308 93.1336 99.6864 93.2242C99.6652 93.2677 99.6477 93.3344 99.6477 93.3725C99.6477 93.4102 99.6273 93.4414 99.6022 93.4414C99.5771 93.4414 99.5567 93.4726 99.5567 93.5104C99.5567 93.5484 99.5374 93.6152 99.5136 93.6587C99.4747 93.7298 99.4123 93.8756 99.2744 94.2166C99.249 94.2795 99.2104 94.3662 99.1883 94.4097C99.0281 94.7257 99.1425 94.8097 99.7308 94.8086C100.293 94.8078 100.277 94.8215 100.558 94.1027C100.578 94.0524 100.643 93.8986 100.704 93.7607C100.765 93.6225 100.84 93.4379 100.873 93.3503C100.905 93.2625 100.967 93.1084 101.012 93.0083C101.056 92.9079 101.125 92.7489 101.165 92.6548C101.305 92.3232 101.386 92.1399 101.47 91.9623C101.517 91.8635 101.555 91.7595 101.555 91.7314C101.555 91.7032 101.593 91.5992 101.64 91.5004C101.687 91.4017 101.756 91.249 101.794 91.1614C101.95 90.7994 102.026 90.6276 102.106 90.4574C102.153 90.3587 102.191 90.2618 102.191 90.2421C102.191 90.2224 102.242 90.0943 102.305 89.9573C102.367 89.8202 102.418 89.6963 102.418 89.6817C102.418 89.6672 102.461 89.5583 102.513 89.4393C102.566 89.3206 102.626 89.1821 102.646 89.1321C102.666 89.082 102.736 88.9241 102.801 88.7816C102.865 88.6387 102.918 88.511 102.918 88.4976C102.918 88.4842 102.981 88.3342 103.059 88.1643C103.136 87.9941 103.261 87.7014 103.335 87.5131C103.409 87.3252 103.488 87.1517 103.511 87.1279C103.535 87.1041 103.553 87.0576 103.553 87.0247C103.553 86.9919 103.597 86.8677 103.65 86.7489C103.885 86.219 103.928 86.1213 104.008 85.9172C104.054 85.7981 104.135 85.6055 104.186 85.4895C104.238 85.3738 104.321 85.1866 104.371 85.0739C104.421 84.9614 104.462 84.8556 104.462 84.8391C104.462 84.8066 104.663 84.351 104.736 84.2191C104.76 84.1756 104.78 84.1198 104.78 84.0949C104.78 84.0703 104.833 83.9313 104.899 83.7866C104.964 83.6415 105.048 83.4511 105.085 83.3636C105.122 83.2757 105.193 83.1116 105.242 82.9986C105.292 82.8858 105.35 82.7523 105.37 82.7022C105.39 82.6522 105.451 82.511 105.505 82.3887C105.559 82.2664 105.644 82.0628 105.693 81.9364C105.743 81.81 105.824 81.6125 105.875 81.4975C105.976 81.2636 106.028 81.1419 106.102 80.958C106.13 80.889 106.171 80.7968 106.193 80.7533C106.25 80.6401 106.242 80.4269 106.178 80.3629C106.041 80.2242 105.099 80.3257 105.098 80.4792C105.098 80.5106 105.077 80.5361 105.052 80.5361C105.027 80.5361 105.007 80.5689 105.007 80.6089C105.007 80.6491 104.979 80.7361 104.944 80.8028C104.91 80.8693 104.861 80.9752 104.835 81.0379C104.778 81.1777 104.684 81.3985 104.552 81.6989C104.498 81.8245 104.432 81.9783 104.407 82.0409C104.382 82.1039 104.336 82.2166 104.304 82.2918C104.273 82.3671 104.226 82.4801 104.2 82.5427C104.174 82.6054 104.108 82.7592 104.053 82.8847C103.998 83.0101 103.923 83.1844 103.886 83.2722C103.849 83.36 103.8 83.4675 103.777 83.511C103.754 83.5545 103.735 83.6314 103.735 83.682C103.735 83.7327 103.72 83.774 103.701 83.774C103.682 83.7742 103.629 83.8717 103.583 83.9907C103.468 84.2903 103.44 84.357 103.326 84.6175C103.195 84.9182 103.101 85.1387 103.044 85.2788C103.018 85.3415 102.969 85.4471 102.935 85.5139C102.9 85.5803 102.872 85.6676 102.872 85.7076C102.872 85.7475 102.852 85.7804 102.827 85.7804C102.802 85.7804 102.781 85.8217 102.781 85.8723C102.781 85.9226 102.762 85.9995 102.738 86.0433C102.699 86.1128 102.528 86.4969 102.418 86.7607C102.308 87.0247 102.137 87.4089 102.098 87.4784C102.074 87.5219 102.055 87.5988 102.055 87.6494C102.055 87.7 102.034 87.7413 102.009 87.7413C101.984 87.7413 101.964 87.7676 101.964 87.7999C101.964 87.8324 101.927 87.9304 101.883 88.0177L101.802 88.1769L101.724 88.0125C101.681 87.9222 101.646 87.8242 101.646 87.7947C101.646 87.7654 101.626 87.7413 101.6 87.7413C101.576 87.7413 101.555 87.712 101.555 87.6765C101.555 87.6409 101.486 87.4715 101.402 87.3002C101.318 87.129 101.188 86.8554 101.112 86.6923C101.037 86.5292 100.869 86.1702 100.738 85.8944C100.423 85.229 100.035 84.4036 99.6134 83.5004C99.5254 83.3121 99.3848 83.0177 99.3008 82.8459C99.2169 82.6738 99.148 82.5047 99.148 82.4697C99.148 82.4344 99.1275 82.4059 99.1027 82.4059C99.0777 82.4059 99.0572 82.3862 99.0572 82.3619C99.0572 82.3151 98.828 81.8089 98.5752 81.2964C98.4907 81.1252 98.4215 80.9558 98.4215 80.9202C98.4215 80.8847 98.4043 80.8554 98.3833 80.8554C98.3623 80.8554 98.3171 80.7703 98.283 80.6666C98.1727 80.3311 97.3249 80.135 97.053 80.3818C96.9786 80.4496 96.9663 80.4496 96.8987 80.3818C96.8399 80.3227 96.7295 80.3087 96.3404 80.3114C95.7583 80.3156 95.7093 80.3394 95.3738 80.7848C95.2425 80.9591 95.1092 81.1334 95.0779 81.1722C95.0256 81.2368 94.77 81.5556 94.637 81.7219C94.6067 81.7594 94.5212 81.8724 94.4468 81.9725C94.3721 82.0729 94.2549 82.2166 94.1865 82.2918C94.1179 82.3671 94.0617 82.4426 94.0615 82.4596C94.0615 82.4765 94.0353 82.5176 94.0037 82.5507C93.9718 82.584 93.8138 82.7753 93.6524 82.9759C93.4909 83.1764 93.3214 83.3816 93.2756 83.432C93.2298 83.482 93.1513 83.5898 93.1009 83.6714C92.9829 83.8626 92.9794 83.8615 92.766 83.5852C92.6668 83.456 92.4927 83.2355 92.3796 83.0949C92.2665 82.9542 92.1335 82.7846 92.0845 82.7181C91.9411 82.5244 90.8089 81.0833 90.6067 80.8376C90.5427 80.7596 90.4443 80.6291 90.3879 80.5476C90.3318 80.466 90.2563 80.3993 90.2206 80.3993C90.1849 80.3993 90.1555 80.3788 90.1555 80.3539C90.1555 80.269 89.1295 80.2961 89.0428 80.3831ZM16.8303 81.378C16.9303 81.3947 17.053 81.425 17.1028 81.4456C17.5034 81.6103 17.6315 81.6737 17.8511 81.8177C18.5414 82.2699 19.0267 82.9559 19.2834 83.8424C19.327 83.9929 19.3804 84.163 19.4022 84.2208C19.424 84.2782 19.4417 84.6416 19.4417 85.0279C19.4417 85.4143 19.424 85.7776 19.4022 85.8351C19.3804 85.8928 19.3259 86.063 19.2807 86.2135C19.2357 86.364 19.1817 86.5068 19.1613 86.5306C19.1406 86.5544 19.124 86.6211 19.124 86.6786C19.124 86.7363 19.1082 86.7837 19.0894 86.7837C19.0703 86.7837 19.0343 86.8225 19.0098 86.8704C18.985 86.918 18.9267 87.0313 18.8798 87.1219C18.8332 87.2124 18.6956 87.3927 18.5743 87.5227C18.4528 87.6524 18.3482 87.77 18.3413 87.7843C18.2879 87.8954 17.5312 88.3796 17.411 88.3796C17.3789 88.3796 17.3527 88.4002 17.3527 88.4253C17.3527 88.4502 17.3056 88.4708 17.2481 88.4708C17.1906 88.4708 17.1244 88.4894 17.1007 88.5118C16.993 88.6139 15.8502 88.6976 15.6283 88.6199C15.54 88.5887 15.391 88.5632 15.297 88.5627C15.203 88.5624 15.0904 88.5438 15.0471 88.5216C15.0038 88.4995 14.9171 88.4606 14.8547 88.4355C14.5847 88.326 14.219 88.1339 14.219 88.1017C14.219 88.0822 14.1767 88.0532 14.125 88.0365C14.0116 88.0004 13.4015 87.3821 13.4015 87.3033C13.4015 87.2723 13.3859 87.2403 13.3674 87.2321C13.2982 87.2012 13.0835 86.8283 13.0835 86.7391C13.0835 86.6882 13.063 86.6469 13.038 86.6469C13.0132 86.6469 12.9927 86.5995 12.9927 86.5418C12.9927 86.4843 12.9687 86.4132 12.9399 86.3839C12.7396 86.1831 12.7437 84.0054 12.9448 83.8038C12.9712 83.7773 12.9927 83.708 12.9927 83.65C12.9927 83.534 12.9927 83.5337 13.2429 83.0443C13.4156 82.7061 13.5884 82.4579 13.8116 82.2278C13.9745 82.0598 14.2574 81.813 14.2868 81.813C14.3004 81.813 14.3876 81.7657 14.4808 81.7077C14.574 81.6497 14.7217 81.5758 14.8092 81.5435C14.8967 81.511 15.0092 81.4683 15.0591 81.4483C15.3586 81.3287 16.309 81.291 16.8303 81.378ZM41.2417 81.3783C41.4578 81.4094 41.4771 81.416 41.8903 81.6032C42.0344 81.6683 42.1638 81.7219 42.1777 81.7219C42.3758 81.7219 43.156 82.4992 43.3906 82.9302C43.4451 83.0306 43.5054 83.1195 43.5239 83.128C43.5427 83.1362 43.558 83.1696 43.558 83.2019C43.558 83.2344 43.6092 83.377 43.6716 83.5187C43.734 83.6604 43.7852 83.8465 43.7852 83.9321C43.7852 84.0178 43.8057 84.1004 43.8305 84.116C43.8577 84.1327 43.876 84.4271 43.876 84.8454C43.876 85.2641 43.8577 85.5585 43.8305 85.5751C43.8057 85.5907 43.7852 85.7035 43.7852 85.826C43.7852 85.9483 43.7648 86.0613 43.7397 86.0767C43.7146 86.0923 43.6942 86.1396 43.6939 86.182C43.6939 86.2244 43.6631 86.318 43.6258 86.3897C43.5885 86.4616 43.558 86.559 43.558 86.6064C43.558 86.6537 43.5375 86.6923 43.5127 86.6923C43.4877 86.6923 43.4672 86.7235 43.4672 86.7618C43.4672 86.7998 43.4163 86.9123 43.3536 87.0116C43.2912 87.1109 43.2402 87.2026 43.2402 87.2154C43.2402 87.3049 42.3966 88.1517 42.3072 88.1517C42.2709 88.1517 42.241 88.1701 42.241 88.1922C42.241 88.2147 42.19 88.2458 42.1273 88.2614C42.0649 88.2773 42.014 88.3104 42.014 88.335C42.014 88.3594 41.9742 88.3796 41.9257 88.3796C41.8772 88.3796 41.8249 88.4002 41.8096 88.4253C41.7941 88.4502 41.7357 88.4708 41.6796 88.4708C41.6237 88.4708 41.5583 88.4894 41.5346 88.5118C41.3853 88.6535 39.5615 88.6538 39.5615 88.5121C39.5615 88.4894 39.5002 88.4708 39.4252 88.4708C39.3503 88.4708 39.289 88.4502 39.289 88.4253C39.289 88.4002 39.256 88.3796 39.2154 88.3796C39.0287 88.3796 38.3033 87.7988 37.9987 87.405C37.7886 87.1331 37.4267 86.4444 37.4267 86.3158C37.4267 86.2822 37.4101 86.2351 37.3894 86.2113C37.1496 85.9336 37.1588 84.3029 37.4041 83.6142C37.7905 82.5291 38.9745 81.4064 39.7372 81.4018C39.8029 81.4015 39.8871 81.3807 39.9247 81.3555C39.9947 81.3088 40.8621 81.3235 41.2417 81.3783ZM58.1367 81.3785C58.2492 81.3947 58.382 81.425 58.4321 81.4458C58.482 81.4669 58.6351 81.5282 58.7727 81.5824C59.0512 81.6918 59.5681 82.0119 59.6959 82.1539C59.7415 82.2045 59.8693 82.3422 59.9796 82.4596C60.0903 82.5769 60.1805 82.6842 60.1805 82.6981C60.1805 82.7118 60.2521 82.8355 60.3396 82.9728C60.4268 83.1099 60.4985 83.2527 60.4985 83.2902C60.4985 83.3274 60.5189 83.3707 60.544 83.3863C60.5688 83.4019 60.5892 83.4612 60.5892 83.5182C60.5892 83.5753 60.6039 83.6366 60.6219 83.6547C60.8443 83.8779 60.8522 85.6616 60.6325 86.0646C60.6088 86.1084 60.5892 86.1943 60.5892 86.2559C60.5892 86.3174 60.5688 86.3804 60.544 86.396C60.5189 86.4116 60.4985 86.4701 60.4985 86.5265C60.4985 86.5826 60.4797 86.648 60.4568 86.6718C60.4336 86.6956 60.357 86.828 60.2862 86.9659C60.0213 87.4817 59.2867 88.2428 59.0539 88.2428C59.0302 88.2428 58.9853 88.2735 58.9542 88.3112C58.9231 88.3487 58.8594 88.3796 58.8125 88.3796C58.7656 88.3796 58.7272 88.4002 58.7272 88.4253C58.7272 88.4502 58.6659 88.4708 58.591 88.4708C58.516 88.4708 58.4547 88.4894 58.4547 88.5121C58.4547 88.5734 58.0443 88.616 57.4555 88.616C56.8666 88.616 56.4565 88.5734 56.4565 88.5121C56.4565 88.4894 56.4205 88.4713 56.3769 88.4716C56.2894 88.4724 55.8068 88.2404 55.7826 88.1859C55.7744 88.167 55.7403 88.1517 55.7071 88.1517C55.588 88.1517 54.8032 87.3074 54.6642 87.0294C54.5901 86.8816 54.5168 86.7506 54.5013 86.738C54.4855 86.7254 54.4351 86.5869 54.3887 86.4302C54.3424 86.2734 54.2879 86.1451 54.2677 86.1451C54.2476 86.1451 54.231 86.0671 54.231 85.9719C54.231 85.8767 54.2081 85.7757 54.1803 85.7478C54.1097 85.6769 54.1089 84.1975 54.1795 84.1267C54.2078 84.0982 54.231 84.0197 54.231 83.9524C54.231 83.8851 54.2615 83.7712 54.2988 83.6993C54.3361 83.6273 54.3667 83.534 54.3669 83.4916C54.3672 83.4492 54.3876 83.4019 54.4127 83.3863C54.4375 83.3707 54.458 83.331 54.458 83.2979C54.458 83.1493 55.0209 82.3575 55.2755 82.1482C55.3131 82.1175 55.4357 82.0166 55.548 81.9238C55.6605 81.8311 55.8853 81.6937 56.0477 81.6182C56.2099 81.543 56.3783 81.4636 56.4216 81.442C56.4652 81.4204 56.557 81.4012 56.626 81.3993C56.6952 81.3977 56.7925 81.378 56.8423 81.3555C56.9377 81.3131 57.786 81.3282 58.1367 81.3785ZM68.9915 81.3892C69.7199 81.5112 70.675 82.1657 71.0303 82.786C71.2489 83.1679 71.3336 83.345 71.3933 83.5458C71.4268 83.6588 71.4707 83.8024 71.4908 83.8651C71.5987 84.2033 71.6208 84.8449 71.5448 85.4383C71.4677 86.0389 71.4385 86.1886 71.3936 86.2168C71.3712 86.2304 71.353 86.2901 71.353 86.3495C71.353 86.4589 71.2222 86.7484 71.16 86.776C71.1412 86.7842 71.126 86.8206 71.126 86.8567C71.126 86.9902 70.6025 87.7101 70.391 87.8677C70.348 87.8995 70.2845 87.9542 70.2499 87.9889C70.1387 88.1006 69.6793 88.3796 69.6068 88.3796C69.5681 88.3796 69.5365 88.4002 69.5365 88.4253C69.5365 88.4502 69.4792 88.4708 69.4092 88.4708C69.3392 88.4708 69.2626 88.4894 69.2389 88.5118C69.2152 88.5342 69.1141 88.5632 69.0141 88.5761C68.9141 88.5889 68.7658 88.6169 68.6844 88.6379C68.465 88.6943 67.2654 88.5881 67.2654 88.5121C67.2654 88.4894 67.2276 88.4708 67.1813 88.4708C67.1006 88.4708 66.4956 88.1758 66.4482 88.1134C66.4357 88.0967 66.3232 88.0018 66.1983 87.9019C66.0733 87.8023 65.9479 87.6896 65.9193 87.6513C65.891 87.613 65.8054 87.5101 65.7294 87.4231C65.6531 87.3358 65.5454 87.1717 65.4901 87.0581C65.4345 86.9448 65.3517 86.7976 65.3056 86.7309C65.2596 86.6644 65.2217 86.5708 65.2217 86.5229C65.2217 86.4753 65.1917 86.3962 65.1552 86.3478C65.1184 86.2991 65.0879 86.2143 65.0871 86.1593C65.0863 86.1043 65.065 86.0466 65.0402 86.0312C65.0152 86.0156 64.9947 85.8925 64.9947 85.7576C64.9947 85.6225 64.9743 85.4993 64.9492 85.484C64.923 85.4676 64.904 85.226 64.904 84.9138C64.904 84.6019 64.923 84.36 64.9492 84.3439C64.9743 84.3283 64.9947 84.2243 64.9947 84.1127C64.9947 84.0008 65.0116 83.8738 65.0323 83.8303C65.0533 83.7868 65.1043 83.6829 65.1459 83.5991C65.1876 83.5157 65.2217 83.4188 65.2217 83.3841C65.2217 82.9709 66.2515 81.8727 66.9025 81.5911C67.0398 81.532 67.1875 81.4653 67.2308 81.4431C67.2742 81.4207 67.3663 81.4023 67.4352 81.4018C67.5042 81.4015 67.5914 81.3807 67.629 81.3555C67.7072 81.303 68.6102 81.3254 68.9915 81.3892ZM83.6383 81.3908C83.9144 81.4447 84.0291 81.4852 84.433 81.6707C85.0529 81.9556 85.9772 82.9969 85.9772 83.4109C85.9772 83.4571 85.9977 83.5075 86.0227 83.5231C86.0475 83.5387 86.068 83.5972 86.068 83.6536C86.068 83.7097 86.0865 83.7751 86.1094 83.7989C86.29 83.989 86.2097 86.1432 86.0173 86.2624C85.9952 86.2761 85.9772 86.3267 85.9772 86.3746C85.9772 86.4893 85.6941 87.0707 85.5363 87.28C85.4682 87.3706 85.3911 87.4734 85.3654 87.5085C85.091 87.8814 84.2703 88.4708 84.0253 88.4708C83.9779 88.4708 83.9261 88.4913 83.9108 88.5164C83.8953 88.5416 83.7931 88.5621 83.6836 88.5621C83.5743 88.5621 83.4721 88.5827 83.4566 88.6076C83.4405 88.6338 83.2073 88.6532 82.9116 88.6532C82.6159 88.6532 82.3827 88.6338 82.3666 88.6076C82.3511 88.5827 82.2489 88.5621 82.1396 88.5621C82.0301 88.5621 81.9279 88.5416 81.9123 88.5164C81.8971 88.4913 81.8344 88.4708 81.7734 88.4708C81.7126 88.4708 81.6627 88.4502 81.6627 88.4253C81.6627 88.4002 81.6229 88.3796 81.5744 88.3796C81.5259 88.3796 81.4742 88.3597 81.4589 88.3353C81.4439 88.311 81.3662 88.2593 81.2861 88.2207C80.8572 88.0144 80.1672 87.2614 80.0422 86.8633C80.0283 86.8195 79.9991 86.7837 79.977 86.7837C79.955 86.7837 79.9367 86.7525 79.9367 86.7145C79.9367 86.6767 79.9187 86.6099 79.8969 86.5664C79.7942 86.362 79.7097 86.1347 79.7097 86.0616C79.7097 86.0173 79.6912 85.9615 79.6683 85.9377C79.5337 85.7968 79.5339 84.0771 79.6686 83.9357C79.6912 83.9119 79.7097 83.8563 79.7097 83.812C79.7097 83.7395 79.7421 83.6514 79.9086 83.2722C80.0664 82.9129 80.5981 82.1969 80.7997 82.0724C80.8621 82.0341 80.9586 81.9597 81.0142 81.9071C81.2185 81.7142 81.8971 81.4034 82.1167 81.4021C82.1794 81.4015 82.2609 81.3807 82.2985 81.3555C82.3791 81.3014 83.3062 81.326 83.6383 81.3908Z" fill="#A1A3A5"/>
</svg>
